<svg width="37" height="36" viewBox="0 0 37 36" fill="none" xmlns="http://www.w3.org/2000/svg">
<path d="M6.55208 0H30.4479C34.0708 0 37 2.92308 37 6.53846V29.4615C37 33.0769 34.0708 36 30.4479 36H6.55208C2.92917 36 0 33.0769 0 29.4615V6.53846C0 2.92308 2.92917 0 6.55208 0Z" fill="#330000"/>
<path d="M17.9296 21.5999H12.1946L11.0229 25.2153C10.9921 25.3538 10.8688 25.4461 10.73 25.4307H7.83168C7.66209 25.4307 7.61584 25.3384 7.66209 25.1538L12.6263 10.8923C12.6725 10.7384 12.7188 10.5692 12.7804 10.3846C12.8421 10.0615 12.8729 9.72302 12.8729 9.38456C12.8575 9.30764 12.9192 9.23072 12.9963 9.21533C13.0117 9.21533 13.0271 9.21533 13.0425 9.21533H16.9892C17.1125 9.21533 17.1742 9.26149 17.1896 9.33841L22.8167 25.1846C22.8629 25.3538 22.8167 25.4307 22.6625 25.4307H19.4404C19.3325 25.4461 19.2246 25.3692 19.1938 25.2615L17.9296 21.5999ZM13.0888 18.4769H17.0046C16.9121 18.1538 16.7888 17.7692 16.65 17.3692C16.5113 16.9538 16.3725 16.5076 16.2338 16.0461C16.0796 15.5692 15.9408 15.1076 15.7867 14.6307C15.6325 14.1538 15.4938 13.7076 15.3704 13.2615C15.2471 12.8307 15.1392 12.4307 15.0313 12.0615H15.0004C14.8617 12.723 14.6921 13.3846 14.4763 14.0461C14.245 14.7846 14.0138 15.5538 13.7671 16.323C13.5513 17.1076 13.32 17.8307 13.0888 18.4769Z" fill="#FF9A00"/>
<path d="M26.1775 11.8462C25.6688 11.8615 25.1755 11.6615 24.8055 11.3077C24.4509 10.9231 24.2659 10.4154 24.2813 9.89231C24.2659 9.36923 24.4663 8.87693 24.8363 8.52308C25.2063 8.16923 25.6996 7.98462 26.2084 7.98462C26.8096 7.98462 27.2721 8.16923 27.6113 8.52308C27.9505 8.89231 28.1355 9.38462 28.12 9.89231C28.1355 10.4154 27.9505 10.9231 27.5805 11.3077C27.2259 11.6769 26.7017 11.8769 26.1775 11.8462ZM24.4509 25.2V13.3538C24.4509 13.2 24.5125 13.1385 24.6513 13.1385H27.7038C27.8425 13.1385 27.9042 13.2154 27.9042 13.3538V25.2C27.9042 25.3692 27.8425 25.4462 27.7038 25.4462H24.6821C24.528 25.4462 24.4509 25.3538 24.4509 25.2Z" fill="#FF9A00"/>
</svg>
