<svg width="48" height="29" viewBox="0 0 48 29" fill="none" xmlns="http://www.w3.org/2000/svg">
<path d="M13.5269 10.5323C13.5269 11.1291 13.5907 11.6129 13.7025 11.9678C13.8302 12.3226 13.9898 12.7097 14.2133 13.1291C14.2932 13.2581 14.3251 13.3871 14.3251 13.5C14.3251 13.6613 14.2293 13.8226 14.0218 13.9839L13.016 14.6613C12.8723 14.7581 12.7287 14.8065 12.6009 14.8065C12.4413 14.8065 12.2817 14.7258 12.122 14.5807C11.8985 14.3387 11.7069 14.0807 11.5473 13.8226C11.3877 13.5484 11.228 13.242 11.0524 12.871C9.80719 14.3549 8.24269 15.0968 6.3589 15.0968C5.0179 15.0968 3.94829 14.7097 3.16604 13.9355C2.38379 13.1613 1.98468 12.1291 1.98468 10.8387C1.98468 9.46776 2.46361 8.35485 3.43743 7.51614C4.41126 6.67743 5.70436 6.25808 7.34869 6.25808C7.89147 6.25808 8.45022 6.30646 9.0409 6.38711C9.63158 6.46775 10.2382 6.59679 10.8768 6.74195V5.56453C10.8768 4.33872 10.6214 3.48388 10.1265 2.98388C9.61562 2.48388 8.75355 2.24194 7.52429 2.24194C6.96554 2.24194 6.39083 2.30646 5.80015 2.45162C5.20947 2.59678 4.63476 2.7742 4.076 3.00001C3.82058 3.11291 3.629 3.17742 3.51725 3.20968C3.4055 3.24194 3.32568 3.25807 3.26182 3.25807C3.03832 3.25807 2.92657 3.09678 2.92657 2.75807V1.96775C2.92657 1.70968 2.9585 1.51613 3.03832 1.40323C3.11815 1.29032 3.26182 1.17742 3.48533 1.06452C4.04408 0.774195 4.71458 0.532259 5.49683 0.33871C6.27908 0.129032 7.10922 0.0322581 7.98726 0.0322581C9.88701 0.0322581 11.2759 0.467743 12.1699 1.33871C13.0479 2.20968 13.4949 3.53226 13.4949 5.30646V10.5323H13.5269ZM7.04537 12.9839C7.57219 12.9839 8.11497 12.8871 8.68969 12.6936C9.2644 12.5 9.77526 12.1452 10.2063 11.6613C10.4617 11.3549 10.6533 11.0161 10.7491 10.6291C10.8449 10.242 10.9087 9.77421 10.9087 9.22582V8.5484C10.4458 8.4355 9.95087 8.33872 9.44001 8.27421C8.92915 8.20969 8.43426 8.17743 7.93937 8.17743C6.86976 8.17743 6.08751 8.38711 5.56069 8.8226C5.03386 9.25808 4.77843 9.87099 4.77843 10.6774C4.77843 11.4355 4.97001 12 5.36911 12.3871C5.75226 12.7903 6.31101 12.9839 7.04537 12.9839ZM19.8647 14.7258C19.5773 14.7258 19.3858 14.6774 19.2581 14.5645C19.1303 14.4678 19.0186 14.242 18.9228 13.9355L15.1712 1.46774C15.0754 1.14516 15.0275 0.935485 15.0275 0.822582C15.0275 0.564517 15.1552 0.419356 15.4107 0.419356H16.9752C17.2785 0.419356 17.486 0.467743 17.5978 0.580646C17.7255 0.67742 17.8213 0.903227 17.9171 1.20968L20.5991 11.8871L23.0895 1.20968C23.1693 0.887098 23.2651 0.67742 23.3928 0.580646C23.5205 0.483872 23.744 0.419356 24.0314 0.419356H25.3085C25.6119 0.419356 25.8194 0.467743 25.9471 0.580646C26.0748 0.67742 26.1866 0.903227 26.2504 1.20968L28.7728 12.0161L31.5346 1.20968C31.6304 0.887098 31.7421 0.67742 31.8539 0.580646C31.9816 0.483872 32.1892 0.419356 32.4765 0.419356H33.9612C34.2166 0.419356 34.3603 0.548388 34.3603 0.822582C34.3603 0.903227 34.3443 0.983873 34.3284 1.08065C34.3124 1.17742 34.2805 1.30645 34.2166 1.48387L30.3692 13.9516C30.2734 14.2742 30.1617 14.4839 30.034 14.5807C29.9063 14.6774 29.6987 14.742 29.4273 14.742H28.0544C27.7511 14.742 27.5435 14.6936 27.4158 14.5807C27.2881 14.4678 27.1764 14.2581 27.1125 13.9355L24.638 3.53226L22.1795 13.9194C22.0997 14.242 22.0039 14.4516 21.8762 14.5645C21.7485 14.6774 21.525 14.7258 21.2376 14.7258H19.8647ZM40.3788 15.1613C39.5487 15.1613 38.7186 15.0645 37.9203 14.871C37.1221 14.6774 36.4995 14.4678 36.0844 14.2258C35.829 14.0807 35.6534 13.9194 35.5896 13.7742C35.5257 13.6291 35.4938 13.4678 35.4938 13.3226V12.5C35.4938 12.1613 35.6215 12 35.8609 12C35.9567 12 36.0525 12.0161 36.1483 12.0484C36.2441 12.0807 36.3878 12.1452 36.5474 12.2097C37.0902 12.4516 37.6809 12.6452 38.3035 12.7742C38.9421 12.9032 39.5647 12.9678 40.2032 12.9678C41.209 12.9678 41.9912 12.7903 42.534 12.4355C43.0768 12.0807 43.3642 11.5645 43.3642 10.9032C43.3642 10.4516 43.2205 10.0807 42.9331 9.77421C42.6458 9.46776 42.103 9.19356 41.3207 8.9355L39.0059 8.20969C37.8405 7.83872 36.9784 7.29033 36.4516 6.56453C35.9248 5.85485 35.6534 5.06452 35.6534 4.22581C35.6534 3.54839 35.7971 2.95162 36.0844 2.43549C36.3718 1.91936 36.7549 1.46774 37.2339 1.11291C37.7128 0.741937 38.2556 0.467743 38.8942 0.274194C39.5327 0.0806453 40.2032 0 40.9057 0C41.2569 0 41.6241 0.0161291 41.9753 0.0645162C42.3425 0.112903 42.6777 0.17742 43.013 0.241936C43.3322 0.322581 43.6356 0.403226 43.9229 0.500001C44.2103 0.596775 44.4338 0.69355 44.5934 0.790324C44.8169 0.919356 44.9766 1.04839 45.0723 1.19355C45.1681 1.32258 45.216 1.5 45.216 1.72581V2.48388C45.216 2.82259 45.0883 3.00001 44.8488 3.00001C44.7211 3.00001 44.5136 2.93549 44.2422 2.80646C43.3322 2.3871 42.3105 2.17742 41.1771 2.17742C40.2671 2.17742 39.5487 2.32258 39.0538 2.62904C38.5589 2.93549 38.3035 3.40323 38.3035 4.06452C38.3035 4.51614 38.4631 4.90323 38.7824 5.20969C39.1017 5.51614 39.6924 5.82259 40.5385 6.09678L42.8054 6.82259C43.9548 7.19356 44.785 7.70969 45.2799 8.37098C45.7748 9.03227 46.0142 9.79034 46.0142 10.6291C46.0142 11.3226 45.8706 11.9516 45.5992 12.5C45.3118 13.0484 44.9287 13.5323 44.4338 13.9194C43.9389 14.3226 43.3482 14.6129 42.6617 14.8226C41.9433 15.0484 41.193 15.1613 40.3788 15.1613Z" fill="black"/>
<path fill-rule="evenodd" clip-rule="evenodd" d="M43.3961 22.9999C38.1438 26.9193 30.5129 28.9999 23.9515 28.9999C14.7561 28.9999 6.47065 25.5644 0.212647 19.8547C-0.282246 19.4031 0.164754 18.7902 0.755433 19.145C7.52429 23.1128 15.8736 25.516 24.5103 25.516C30.3373 25.516 36.739 24.2902 42.6298 21.7741C43.5078 21.3709 44.2581 22.3547 43.3961 22.9999Z" fill="#FF9900"/>
<path fill-rule="evenodd" clip-rule="evenodd" d="M45.5832 20.4838C44.9127 19.6129 41.1451 20.0645 39.437 20.2741C38.9261 20.3387 38.8463 19.8871 39.3092 19.5483C42.3105 17.4193 47.2434 18.0322 47.8182 18.7419C48.3929 19.4677 47.6585 24.4516 44.8488 26.8387C44.4178 27.2096 44.0027 27.0161 44.1943 26.5322C44.8328 24.9354 46.2537 21.3387 45.5832 20.4838Z" fill="#FF9900"/>
</svg>
