<svg width="34" height="42" viewBox="0 0 34 42" fill="none" xmlns="http://www.w3.org/2000/svg">
<path d="M34 0L30.9025 37.7956L16.9792 42L3.09421 37.8015L0 0H34Z" fill="#264DE4"/>
<path d="M28.2507 35.3889L30.8977 3.09082H17V38.7863L28.2507 35.3889Z" fill="#2965F1"/>
<path d="M7.09341 17.1108L7.47491 21.747H17V17.1108H7.09341Z" fill="#EBEBEB"/>
<path d="M17 7.72705H16.9853H6.32687L6.7138 12.3633H17V7.72705Z" fill="#EBEBEB"/>
<path d="M17 33.9751V29.1515L16.9813 29.1569L12.2409 27.7627L11.9379 24.0651H9.63439H7.66507L8.2614 31.3446L16.9804 33.981L17 33.9751Z" fill="#EBEBEB"/>
<path d="M22.2266 21.747L21.7326 27.7598L16.9853 29.1554V33.9788L25.7112 31.3447L25.7753 30.5614L26.7755 18.3558L26.8793 17.1108L27.6477 7.72705H16.9853V12.3633H22.9831L22.5957 17.1108H16.9853V21.747H22.2266Z" fill="white"/>
</svg>
