<svg width="47" height="34" viewBox="0 0 47 34" fill="none" xmlns="http://www.w3.org/2000/svg">
<path d="M46.5365 12.8348C46.409 12.7328 45.219 11.827 42.7095 11.827C42.0469 11.8299 41.3856 11.8872 40.7322 11.9983C40.2465 8.64222 37.4942 7.00594 37.3708 6.93253L36.6969 6.54077L36.2537 7.18551C35.6987 8.05159 35.2935 9.00633 35.0556 10.0091C34.6063 11.9249 34.8796 13.7243 35.8449 15.2627C34.6792 15.9176 32.8092 16.0788 32.4308 16.093H1.47122C0.662568 16.0941 0.00638142 16.7529 0.0019744 17.5681C-0.0341369 20.3023 0.425378 23.0203 1.35789 25.5881C2.42439 28.4077 4.01105 30.4846 6.07531 31.7556C8.38848 33.1838 12.1466 33.9998 16.4066 33.9998C18.3311 34.0059 20.252 33.8304 22.1441 33.4755C24.7742 32.9887 27.3051 32.0619 29.632 30.7335C31.5493 29.6141 33.2749 28.1902 34.742 26.5164C37.1948 23.7172 38.6561 20.5997 39.7427 17.8292H40.1758C42.8613 17.8292 44.5128 16.7458 45.4235 15.838C46.0287 15.259 46.5011 14.5536 46.8077 13.7713L47 13.2041L46.5365 12.8348Z" fill="#2496ED"/>
<path d="M4.34093 15.1791H8.48965C8.68974 15.1791 8.85188 15.0155 8.85188 14.8139V11.0884C8.853 10.8867 8.69172 10.7223 8.49169 10.7212C8.49103 10.7212 8.49031 10.7212 8.48965 10.7212H4.34093C4.14084 10.7212 3.9787 10.8847 3.9787 11.0864V11.0884V14.8138C3.9787 15.0155 4.14084 15.1791 4.34093 15.1791Z" fill="#2496ED"/>
<path d="M10.0581 15.1791H14.2068C14.4069 15.1791 14.569 15.0155 14.569 14.8139V11.0884C14.5701 10.8867 14.4088 10.7223 14.2088 10.7212C14.2081 10.7212 14.2074 10.7212 14.2067 10.7212H10.058C9.85679 10.7212 9.69373 10.8856 9.69373 11.0884V14.8138C9.69491 15.0159 9.85764 15.1791 10.0581 15.1791Z" fill="#2496ED"/>
<path d="M15.8622 15.1791H20.0109C20.211 15.1791 20.3731 15.0155 20.3731 14.8139V11.0884C20.3742 10.8867 20.213 10.7223 20.0129 10.7212C20.0122 10.7212 20.0115 10.7212 20.0108 10.7212H15.8621C15.662 10.7212 15.4999 10.8847 15.4999 11.0864V11.0884V14.8138C15.4999 15.0155 15.6621 15.1791 15.8622 15.1791Z" fill="#2496ED"/>
<path d="M21.5976 15.1791H25.7463C25.9467 15.1791 26.1095 15.0159 26.1106 14.8139V11.0884C26.1106 10.8856 25.9475 10.7212 25.7463 10.7212H21.5976C21.3975 10.7212 21.2354 10.8847 21.2354 11.0864V11.0884V14.8138C21.2354 15.0155 21.3976 15.1791 21.5976 15.1791Z" fill="#2496ED"/>
<path d="M10.0581 9.81937H14.2068C14.4071 9.81824 14.569 9.65412 14.569 9.45214V5.72674C14.569 5.52503 14.4068 5.36157 14.2068 5.36157H10.0581C9.8577 5.36157 9.6949 5.5247 9.69379 5.72674V9.45214C9.6949 9.65452 9.85731 9.81824 10.0581 9.81937Z" fill="#2496ED"/>
<path d="M15.8622 9.81937H20.0109C20.2112 9.81824 20.3731 9.65412 20.3731 9.45214V5.72674C20.3731 5.52503 20.2109 5.36157 20.0109 5.36157H15.8622C15.6621 5.36157 15.4999 5.52509 15.4999 5.72674V9.45214C15.4999 9.65412 15.6618 9.81824 15.8622 9.81937Z" fill="#2496ED"/>
<path d="M21.5976 9.81937H25.7463C25.9471 9.81824 26.1095 9.65452 26.1106 9.45214V5.72674C26.1095 5.5247 25.9467 5.36157 25.7463 5.36157H21.5976C21.3975 5.36157 21.2354 5.52509 21.2354 5.72674V9.45214C21.2354 9.65412 21.3972 9.81824 21.5976 9.81937Z" fill="#2496ED"/>
<path d="M21.5976 4.45786H25.7463C25.9467 4.45786 26.1095 4.29467 26.1106 4.09269V0.365172C26.1095 0.163124 25.9467 0 25.7463 0H21.5976C21.3975 0 21.2354 0.163456 21.2354 0.365172V4.09262C21.2354 4.29434 21.3976 4.45786 21.5976 4.45786Z" fill="#2496ED"/>
<path d="M27.3835 15.1791H31.5323C31.7327 15.1791 31.8954 15.0159 31.8965 14.8139V11.0884C31.8965 10.8856 31.7335 10.7212 31.5323 10.7212H27.3835C27.1835 10.7212 27.0213 10.8847 27.0213 11.0864V11.0884V14.8138C27.0213 15.0155 27.1835 15.1791 27.3835 15.1791Z" fill="#2496ED"/>
</svg>
