<svg width="25" height="37" viewBox="0 0 25 37" fill="none" xmlns="http://www.w3.org/2000/svg">
<path d="M6.1639 36.9833C9.56637 36.9833 12.3278 34.2219 12.3278 30.8194V24.6555H6.1639C2.76143 24.6555 0 27.4169 0 30.8194C0 34.2219 2.76143 36.9833 6.1639 36.9833Z" fill="#0ACF83"/>
<path d="M0 18.4915C0 15.0891 2.76143 12.3276 6.1639 12.3276H12.3278V24.6554H6.1639C2.76143 24.6554 0 21.894 0 18.4915Z" fill="#A259FF"/>
<path d="M0 6.1639C0 2.76143 2.76143 0 6.1639 0H12.3278V12.3278H6.1639C2.76143 12.3278 0 9.56637 0 6.1639Z" fill="#F24E1E"/>
<path d="M12.3278 0H18.4917C21.8942 0 24.6556 2.76143 24.6556 6.1639C24.6556 9.56637 21.8942 12.3278 18.4917 12.3278H12.3278V0Z" fill="#FF7262"/>
<path d="M24.6556 18.4915C24.6556 21.894 21.8942 24.6554 18.4917 24.6554C15.0892 24.6554 12.3278 21.894 12.3278 18.4915C12.3278 15.0891 15.0892 12.3276 18.4917 12.3276C21.8942 12.3276 24.6556 15.0891 24.6556 18.4915Z" fill="#1ABCFE"/>
</svg>
