<svg width="35" height="48" viewBox="0 0 35 48" fill="none" xmlns="http://www.w3.org/2000/svg">
<path d="M22.9808 17.3374L18.1327 21.8073L13.6324 12.815L15.9573 7.6446C16.5449 6.61324 17.5058 6.59962 18.0934 7.6446L22.9808 17.3374Z" fill="#FFA000"/>
<path d="M18.1348 21.8053L0 38.5074L13.6345 12.8149L18.1348 21.8053Z" fill="#F57F17"/>
<path d="M28.2967 10.5012C29.1654 9.682 30.0595 9.95832 30.2855 11.122L35 38.2818L19.363 47.5776C18.8147 47.8812 17.3605 47.9999 17.3605 47.9999C17.3605 47.9999 16.0379 47.8403 15.5309 47.564L0 38.5075L28.2967 10.5012Z" fill="#FFCA28"/>
<path d="M13.6345 12.8151L0 38.5076L6.07636 0.954485C6.30432 -0.209198 6.97052 -0.327901 7.57187 0.703456L13.6345 12.8151Z" fill="#FFA000"/>
</svg>
