<svg width="32" height="47" viewBox="0 0 32 47" fill="none" xmlns="http://www.w3.org/2000/svg">
<path d="M30.6347 30.7193C31.1387 31.2247 30.7813 32.0884 30.0693 32.0884H16.8C16.3573 32.0884 16 32.4467 16 32.8906V46.1966C16 46.9106 15.1387 47.2689 14.6347 46.7635L0.312 32.4012C0.112 32.2007 0 31.9279 0 31.6445V16.8464C0 16.4025 0.357333 16.0442 0.8 16.0442H16L30.6347 30.7193Z" fill="#0C0C0C"/>
<path d="M16 16.0442L1.36532 1.36911C0.86132 0.863713 1.21865 0 1.93065 0H31.2C31.6426 0 32 0.358321 32 0.80221V15.242C32 15.6859 31.6426 16.0442 31.2 16.0442H16Z" fill="#0C0C0C"/>
</svg>
