<svg width="42" height="48" viewBox="0 0 42 48" fill="none" xmlns="http://www.w3.org/2000/svg">
<path fill-rule="evenodd" clip-rule="evenodd" d="M25.032 5.50063L34.7356 11.1993C35.0158 10.8978 35.3372 10.6391 35.6901 10.4311C37.7025 9.25427 40.2694 9.95297 41.4384 12C42.5953 14.047 41.9084 16.6578 39.8959 17.8467C39.5456 18.0519 39.1682 18.2047 38.7752 18.3006V29.7022C39.1639 29.7983 39.5372 29.9501 39.8839 30.1531C41.9084 31.3421 42.5953 33.953 41.4264 36C40.2694 38.0469 37.6905 38.7456 35.678 37.5689C35.2881 37.3414 34.9369 37.0514 34.6378 36.71L24.9933 42.3737C25.1345 42.8087 25.2062 43.2639 25.2057 43.722C25.2057 46.0755 23.3259 48 21 48C18.6741 48 16.7943 46.0876 16.7943 43.722C16.7943 43.3015 16.8537 42.8954 16.9644 42.5117L7.2634 36.8147C6.98633 37.1102 6.66936 37.3642 6.32201 37.5689C4.29749 38.7456 1.73057 38.0469 0.573604 36C-0.583199 33.953 0.10373 31.3421 2.11612 30.1531C2.46279 29.95 2.83611 29.7982 3.22485 29.702V18.3006C2.83182 18.2047 2.45439 18.0519 2.10414 17.8467C0.091589 16.6701 -0.595339 14.047 0.561627 12C1.71859 9.95297 4.29732 9.25427 6.30987 10.4311C6.66082 10.638 6.98072 10.8951 7.25979 11.1945L16.9662 5.49429C16.8518 5.09929 16.7939 4.68958 16.7943 4.27779C16.7943 1.91236 18.6741 0 21 0C23.3259 0 25.2057 1.9122 25.2057 4.27779C25.2057 4.70298 25.145 5.11332 25.032 5.50063ZM24.021 7.25647L33.7478 12.9685C33.5929 13.5192 33.5485 14.096 33.6172 14.6645C33.6859 15.233 33.8663 15.7816 34.1476 16.2778C34.7397 17.3254 35.7042 18.0199 36.7747 18.2906V29.7064C36.7201 29.7199 36.6658 29.7348 36.6118 29.7504L23.908 7.37078C23.9464 7.3334 23.9841 7.29518 24.021 7.25647ZM18.0946 7.37328L5.39096 29.7526C5.33603 29.7365 5.28079 29.7214 5.22526 29.7076V18.2906C6.29576 18.0199 7.26029 17.3254 7.85239 16.2778C8.13431 15.7807 8.31487 15.2309 8.38328 14.6612C8.45169 14.0916 8.40656 13.5137 8.25057 12.9622L17.9745 7.2518C18.0137 7.29302 18.0538 7.33373 18.0946 7.37328ZM22.1752 8.38703L34.8759 30.7614C34.585 31.0437 34.3356 31.3673 34.1355 31.722C33.9359 32.0747 33.7866 32.4544 33.6922 32.8498H8.30815C8.21361 32.4544 8.06423 32.0746 7.86453 31.722C7.66372 31.3697 7.41482 31.0481 7.12526 30.7669L19.8284 8.38803C20.2093 8.49958 20.6037 8.55598 21 8.55558C21.408 8.55558 21.8023 8.49684 22.1752 8.38703ZM24.1103 40.8401L33.7739 35.1651C33.7449 35.0725 33.719 34.9789 33.6963 34.8845H8.30274C8.28928 34.94 8.27468 34.9951 8.2591 35.05L17.9699 40.7529C18.3621 40.3381 18.8327 40.0084 19.3534 39.7835C19.8742 39.5586 20.4343 39.4432 21 39.4443C21.5855 39.4432 22.1647 39.5669 22.7004 39.8073C23.2361 40.0477 23.7164 40.3995 24.1103 40.8401Z" fill="#E535AB"/>
</svg>
