<svg width="37" height="41" viewBox="0 0 37 41" fill="none" xmlns="http://www.w3.org/2000/svg">
<path d="M37 0H0V41H37V0Z" fill="#F7DF1E"/>
<path d="M24.8546 32.0315C25.5999 33.3799 26.5695 34.3711 28.2844 34.3711C29.7251 34.3711 30.6454 33.5732 30.6454 32.4708C30.6454 31.1496 29.6998 30.6817 28.1141 29.9131L27.2449 29.4999C24.736 28.3154 23.0692 26.8316 23.0692 23.6948C23.0692 20.8053 25.056 18.6056 28.1611 18.6056C30.3717 18.6056 31.9609 19.4581 33.1062 21.6904L30.3987 23.6167C29.8026 22.4323 29.1595 21.9656 28.1611 21.9656C27.1427 21.9656 26.4973 22.6815 26.4973 23.6167C26.4973 24.7725 27.1433 25.2404 28.6351 25.9563L29.5043 26.3689C32.4584 27.7727 34.1263 29.2038 34.1263 32.4213C34.1263 35.89 31.6673 37.7903 28.3649 37.7903C25.1359 37.7903 23.0498 36.0853 22.0291 33.8504L24.8546 32.0315ZM12.5724 32.3653C13.1186 33.4391 13.6154 34.347 14.81 34.347C15.9523 34.347 16.6729 33.8517 16.6729 31.926V18.8256H20.1497V31.9781C20.1497 35.9675 18.039 37.7832 14.958 37.7832C12.1742 37.7832 10.562 36.1868 9.74216 34.264L12.5724 32.3653Z" fill="black"/>
</svg>
