<svg width="37" height="42" viewBox="0 0 37 42" fill="none" xmlns="http://www.w3.org/2000/svg">
<path d="M16.8306 0.448081C17.8416 -0.148013 19.1584 -0.150706 20.1685 0.448081C25.2504 3.40596 30.3338 6.35921 35.4147 9.31889C36.3704 9.8734 37.0096 10.969 36.9999 12.1033V29.899C37.007 31.0803 36.3046 32.202 35.2964 32.744C30.2312 35.6855 25.1687 38.6307 20.1045 41.5723C19.0726 42.1801 17.7293 42.1332 16.7297 41.4757C15.2112 40.5689 13.69 39.6666 12.1714 38.7607C11.861 38.5701 11.5112 38.4185 11.2921 38.1085C11.4858 37.8396 11.8321 37.8061 12.1136 37.6886C12.7474 37.481 13.3296 37.1477 13.9119 36.8243C14.0592 36.7205 14.2389 36.7603 14.3801 36.8532C15.6786 37.6201 16.9657 38.4093 18.2685 39.1689C18.5465 39.3342 18.8279 39.1148 19.0655 38.9783C24.0359 36.0846 29.0125 33.2018 33.982 30.3072C34.1662 30.216 34.268 30.0146 34.253 29.8069C34.2565 23.9364 34.2539 18.0649 34.2547 12.1945C34.2758 11.9588 34.1434 11.742 33.9364 11.6455C28.8889 8.71741 23.8439 5.78481 18.7973 2.85594C18.7098 2.79402 18.6062 2.7608 18.5001 2.76064C18.394 2.76048 18.2904 2.79339 18.2028 2.85504C13.1561 5.78481 8.11201 8.7201 3.06534 11.6481C2.85913 11.7447 2.72074 11.9579 2.74528 12.1945C2.74615 18.0649 2.74528 23.9364 2.74528 29.8078C2.73653 29.9091 2.75814 30.0109 2.80722 30.0992C2.85629 30.1875 2.93046 30.2583 3.01974 30.3018C4.36647 31.0885 5.71494 31.8696 7.06254 32.6536C7.82173 33.0745 8.75386 33.3247 9.59031 33.0021C10.3284 32.7295 10.8458 31.9536 10.8318 31.1463C10.8387 25.3101 10.8283 19.473 10.837 13.6377C10.8185 13.3786 11.0571 13.1646 11.3017 13.1889C11.9488 13.1845 12.5967 13.18 13.2438 13.1907C13.5139 13.1845 13.6998 13.4634 13.6664 13.7245C13.6637 19.5976 13.6733 25.4709 13.662 31.344C13.6637 32.9093 13.0395 34.6124 11.6339 35.3783C9.90238 36.3023 7.76219 36.1063 6.05155 35.2203C4.57064 34.459 3.1574 33.5604 1.70278 32.7447C0.691932 32.2058 -0.00699058 31.0795 0.000124987 29.8992V12.1033C-0.0104757 10.9455 0.654176 9.83002 1.63961 9.28359C6.70386 6.33961 11.7672 3.3934 16.8306 0.448081Z" fill="#8CC84B"/>
<path d="M21.2486 12.7753C23.4574 12.6288 25.8219 12.6885 27.8095 13.8094C29.3483 14.6683 30.2015 16.4709 30.2286 18.232C30.1856 18.4695 29.9446 18.6006 29.7244 18.5843C29.0836 18.5834 28.4426 18.5932 27.8018 18.5798C27.5299 18.5905 27.3719 18.3324 27.3378 18.0848C27.1537 17.2422 26.7076 16.4077 25.9377 16.0012C24.7557 15.3917 23.3853 15.4223 22.0966 15.4351C21.1557 15.4865 20.144 15.5704 19.3469 16.1403C18.735 16.572 18.5491 17.4435 18.7675 18.1454C18.9734 18.6493 19.5381 18.8119 20.0002 18.9618C22.662 19.6789 25.4827 19.6076 28.0937 20.5513C29.1747 20.936 30.2321 21.6839 30.6021 22.8498C31.0861 24.4124 30.874 26.2801 29.7947 27.5345C28.9195 28.5668 27.6448 29.1286 26.3734 29.4338C24.6821 29.8222 22.9269 29.8321 21.2093 29.6596C19.5942 29.47 17.9135 29.0329 16.6667 27.8993C15.6005 26.9457 15.0797 25.4599 15.1314 24.0258C15.1438 23.7837 15.3779 23.6148 15.6031 23.6347C16.2484 23.6293 16.8938 23.6275 17.5391 23.6356C17.7969 23.6166 17.988 23.846 18.0012 24.0963C18.1203 24.8991 18.4132 25.7417 19.0928 26.2177C20.4044 27.0893 22.0501 27.0296 23.5519 27.054C24.7961 26.9972 26.1928 26.98 27.2081 26.1329C27.7438 25.6497 27.9026 24.8414 27.7578 24.146C27.6009 23.5588 27.0047 23.2852 26.4927 23.1063C23.865 22.2501 21.0128 22.5608 18.4105 21.5925C17.3541 21.208 16.3325 20.4808 15.9266 19.3628C15.3603 17.7805 15.6198 15.8234 16.8122 14.6113C17.9748 13.4056 19.653 12.9413 21.2486 12.7751V12.7753Z" fill="#8CC84B"/>
</svg>
