<svg width="37" height="36" viewBox="0 0 37 36" fill="none" xmlns="http://www.w3.org/2000/svg">
<path d="M6.55208 0H30.4479C34.0708 0 37 2.92308 37 6.53846V29.4615C37 33.0769 34.0708 36 30.4479 36H6.55208C2.92917 36 0 33.0769 0 29.4615V6.53846C0 2.92308 2.92917 0 6.55208 0Z" fill="#001E36"/>
<path d="M8.32501 25.2461V9.41535C8.32501 9.30765 8.37126 9.24612 8.47918 9.24612C8.74126 9.24612 8.98793 9.24612 9.34251 9.23073C9.71251 9.21535 10.0979 9.21535 10.5142 9.19996C10.9304 9.18458 11.3775 9.18458 11.8554 9.16919C12.3333 9.15381 12.7958 9.15381 13.2583 9.15381C14.5225 9.15381 15.5708 9.30765 16.4342 9.63073C17.205 9.89227 17.9142 10.323 18.5 10.8923C18.9933 11.3846 19.3788 11.9846 19.6254 12.6461C19.8567 13.2923 19.98 13.9538 19.98 14.6461C19.98 15.9692 19.6717 17.0615 19.055 17.923C18.4383 18.7846 17.575 19.4307 16.5729 19.8C15.5246 20.1846 14.3683 20.323 13.1042 20.323C12.7342 20.323 12.4875 20.323 12.3333 20.3077C12.1792 20.2923 11.9633 20.2923 11.6704 20.2923V25.2307C11.6858 25.3384 11.6088 25.4307 11.5008 25.4461C11.4854 25.4461 11.47 25.4461 11.4392 25.4461H8.51001C8.38668 25.4461 8.32501 25.3846 8.32501 25.2461ZM11.6858 12.2153V17.3846C11.9017 17.4 12.1021 17.4153 12.2871 17.4153H13.1042C13.7054 17.4153 14.3067 17.323 14.8771 17.1384C15.3704 17 15.8021 16.7077 16.1413 16.323C16.465 15.9384 16.6192 15.4153 16.6192 14.7384C16.6346 14.2615 16.5113 13.7846 16.2646 13.3692C16.0025 12.9692 15.6325 12.6615 15.1854 12.4923C14.615 12.2615 13.9983 12.1692 13.3663 12.1846C12.9654 12.1846 12.6108 12.1846 12.3179 12.2C12.0096 12.1846 11.7938 12.2 11.6858 12.2153Z" fill="#31A8FF"/>
<path d="M29.6 16.4462C29.1375 16.2 28.6442 16.0308 28.12 15.9231C27.5496 15.8 26.9792 15.7231 26.3933 15.7231C26.085 15.7077 25.7613 15.7539 25.4683 15.8308C25.2679 15.8769 25.0983 15.9846 24.9904 16.1385C24.9133 16.2615 24.8671 16.4154 24.8671 16.5539C24.8671 16.6923 24.9288 16.8308 25.0213 16.9539C25.16 17.1231 25.345 17.2615 25.5454 17.3692C25.9 17.5539 26.27 17.7231 26.64 17.8769C27.4725 18.1539 28.2742 18.5385 29.0142 19C29.5229 19.3231 29.9392 19.7539 30.2321 20.2769C30.4788 20.7692 30.6021 21.3077 30.5867 21.8615C30.6021 22.5846 30.3863 23.3077 29.9854 23.9077C29.5538 24.5231 28.9525 25 28.2588 25.2769C27.5033 25.6 26.5783 25.7692 25.4683 25.7692C24.7592 25.7692 24.0654 25.7077 23.3717 25.5692C22.8321 25.4769 22.2925 25.3077 21.7992 25.0769C21.6913 25.0154 21.6142 24.9077 21.6296 24.7846V22.1077C21.6296 22.0615 21.645 22 21.6913 21.9692C21.7375 21.9385 21.7838 21.9539 21.83 21.9846C22.4313 22.3385 23.0633 22.5846 23.7417 22.7385C24.3275 22.8923 24.9442 22.9692 25.5608 22.9692C26.1467 22.9692 26.5629 22.8923 26.8404 22.7539C27.0871 22.6462 27.2567 22.3846 27.2567 22.1077C27.2567 21.8923 27.1333 21.6923 26.8867 21.4923C26.64 21.2923 26.1313 21.0615 25.3758 20.7692C24.5896 20.4923 23.865 20.1231 23.1867 19.6615C22.7088 19.3231 22.3079 18.8769 22.015 18.3539C21.7683 17.8615 21.645 17.3231 21.6604 16.7846C21.6604 16.1231 21.8454 15.4923 22.1846 14.9231C22.57 14.3077 23.1404 13.8154 23.8033 13.5077C24.5279 13.1385 25.4375 12.9692 26.5321 12.9692C27.1642 12.9692 27.8117 13.0154 28.4438 13.1077C28.9063 13.1692 29.3533 13.2923 29.7696 13.4615C29.8313 13.4769 29.8929 13.5385 29.9238 13.6C29.9392 13.6615 29.9546 13.7231 29.9546 13.7846V16.2923C29.9546 16.3539 29.9238 16.4154 29.8775 16.4462C29.7388 16.4769 29.6617 16.4769 29.6 16.4462Z" fill="#31A8FF"/>
</svg>
