<svg width="42" height="41" viewBox="0 0 42 41" fill="none" xmlns="http://www.w3.org/2000/svg">
<path d="M21 24.1147C22.8527 24.1147 24.3546 22.4964 24.3546 20.5C24.3546 18.5037 22.8527 16.8854 21 16.8854C19.1474 16.8854 17.6455 18.5037 17.6455 20.5C17.6455 22.4964 19.1474 24.1147 21 24.1147Z" fill="#61DAFB"/>
<path d="M21 27.9056C30.9411 27.9056 39 24.59 39 20.5C39 16.41 30.9411 13.0944 21 13.0944C11.0589 13.0944 3 16.41 3 20.5C3 24.59 11.0589 27.9056 21 27.9056Z" stroke="#61DAFB" stroke-width="2"/>
<path d="M15.048 24.2028C20.0186 33.4796 26.7128 39.3422 30 37.2972C33.2872 35.2522 31.9225 26.074 26.9519 16.7972C21.9814 7.52035 15.2872 1.65781 12 3.70282C8.7128 5.74783 10.0775 14.926 15.048 24.2028Z" stroke="#61DAFB" stroke-width="2"/>
<path d="M15.0481 16.7972C10.0775 26.074 8.71283 35.2522 12 37.2972C15.2872 39.3422 21.9814 33.4796 26.952 24.2028C31.9225 14.926 33.2872 5.74783 30 3.70282C26.7128 1.65781 20.0186 7.52036 15.0481 16.7972Z" stroke="#61DAFB" stroke-width="2"/>
</svg>
