<svg width="39" height="38" viewBox="0 0 39 38" fill="none" xmlns="http://www.w3.org/2000/svg">
<path d="M27.0229 26.5389C28.4621 26.386 29.5539 25.1126 29.5043 23.5844C29.4547 22.0563 28.2139 20.8337 26.725 20.8337H26.6259C25.0872 20.8847 23.8962 22.2091 23.9458 23.7881C23.9955 24.5522 24.2932 25.2144 24.7399 25.6728C23.0525 29.0858 20.4718 31.5817 16.6007 33.6702C13.9704 35.0965 11.2408 35.6059 8.51129 35.2494C6.27793 34.9437 4.54091 33.925 3.44891 32.2439C1.86088 29.748 1.71204 27.0481 3.05205 24.3485C3.99506 22.4128 5.48376 20.9865 6.42677 20.2734C6.22827 19.6112 5.93044 18.4906 5.7816 17.6757C-1.41467 23.0242 -0.670162 30.2574 1.51353 33.6702C3.15123 36.2172 6.47644 37.7963 10.149 37.7963C11.1415 37.7963 12.134 37.6943 13.1267 37.4398C19.4793 36.1662 24.2933 32.2949 27.0229 26.5389ZM35.7577 20.2226C31.9858 15.689 26.4274 13.1931 20.0748 13.1931H19.2808C18.8341 12.2762 17.8911 11.6648 16.8489 11.6648H16.7496C15.2112 11.7158 14.0202 13.0402 14.0697 14.6194C14.1194 16.1474 15.3601 17.37 16.8489 17.37H16.9481C18.0399 17.319 18.9829 16.6059 19.3799 15.638H20.2733C24.0452 15.638 27.6184 16.7586 30.8444 18.949C33.3258 20.63 35.1125 22.8204 36.105 25.4691C36.9487 27.6085 36.899 29.697 36.0057 31.4799C34.6161 34.1796 32.2836 35.6568 29.2066 35.6568C27.2214 35.6568 25.3355 35.0455 24.3429 34.587C23.797 35.0965 22.8043 35.9114 22.1095 36.421C24.2437 37.4396 26.4274 38 28.5117 38C33.2761 38 36.7998 35.3002 38.1399 32.6005C39.5791 29.646 39.4797 24.5522 35.7577 20.2226ZM10.546 27.4046C10.5957 28.9329 11.8363 30.1553 13.3252 30.1553H13.4245C14.963 30.1045 16.1541 28.78 16.1044 27.2009C16.0549 25.6727 14.8141 24.4503 13.3252 24.4503H13.226C13.1267 24.4503 12.9777 24.4503 12.8787 24.5011C10.8438 21.0373 10.0001 17.268 10.298 13.1929C10.4963 10.1366 11.489 7.48777 13.226 5.29737C14.6652 3.41264 17.4444 2.49577 19.3304 2.44495C24.591 2.34301 26.8242 9.06681 26.9732 11.7666C27.6184 11.9194 28.7102 12.276 29.4547 12.5307C28.8591 4.27886 23.8962 0 19.1319 0C14.6652 0 10.546 3.31101 8.90815 8.20107C6.62527 14.7211 8.11413 20.9865 10.8933 25.9275C10.6453 26.284 10.4963 26.8444 10.546 27.4048V27.4046Z" fill="#764ABC"/>
</svg>
