<svg width="48" height="24" viewBox="0 0 48 24" fill="none" xmlns="http://www.w3.org/2000/svg">
<path fill-rule="evenodd" clip-rule="evenodd" d="M31.3004 7.69811L46.6127 6.64151C47.6434 6.64151 48.3795 7.69811 47.7906 8.45283L37.0425 23.5472C36.748 23.6981 36.4536 24 36.0119 24H11.8655C11.6824 23.9773 11.5071 23.9108 11.3536 23.8059C11.2002 23.7011 11.0729 23.5607 10.9821 23.3962L0.233961 8.45283C-0.354976 7.69811 0.233961 6.49057 1.2646 6.64151L16.577 7.69811L23.0553 0.45283C23.497 -0.150943 24.5276 -0.150943 24.8221 0.45283L31.3004 7.54717V7.69811ZM34.5395 21.5849L24.5276 17.8113V21.5849H34.5395ZM23.3497 21.5849V17.8113L13.3378 21.5849H23.497H23.3497ZM22.1719 17.0566L12.0127 20.8302L4.65099 10.2642L22.3191 16.9057L22.1719 17.0566ZM25.7055 17.0566L36.0119 20.8302L43.3736 10.2642L25.7055 16.9057V17.0566ZM23.3497 16.1509V3.62264L15.1046 12.9811L23.3497 16V16.1509ZM24.5276 16.1509V3.62264L32.9199 12.9811L24.5276 16V16.1509ZM12.6016 12.0755L14.5157 9.96226L5.09269 9.35849L12.6016 12.0755ZM35.2757 12.0755L33.3616 9.96226L42.6374 9.35849L35.2757 12.0755Z" fill="#006CFF"/>
</svg>
