<svg width="29" height="21" viewBox="0 0 29 21" fill="none" xmlns="http://www.w3.org/2000/svg">
<path d="M14.5 0C10.6332 0 8.21661 2.33338 7.24982 6.99971C8.7 4.66633 10.3917 3.79164 12.3249 4.37476C13.428 4.70748 14.2164 5.67366 15.0893 6.74273C16.5108 8.48423 18.1561 10.4998 21.7502 10.4998C25.6166 10.4998 28.0336 8.1664 29 3.49964C27.5502 5.83302 25.8585 6.70814 23.9249 6.12502C22.8221 5.7923 22.0338 4.82612 21.1609 3.75705C19.7394 2.01555 18.0937 0 14.5 0ZM7.24982 10.4998C3.38339 10.4998 0.966425 12.8332 0 17.4999C1.44982 15.1665 3.14152 14.2914 5.07509 14.875C6.17787 15.2081 6.96624 16.1739 7.8391 17.2425C9.26064 18.984 10.9063 21 14.5 21C18.3668 21 20.7834 18.6666 21.7502 13.9999C20.3 16.3332 18.6083 17.2084 16.6751 16.6248C15.572 16.2925 14.7836 15.3259 13.9107 14.2573C12.4892 12.5158 10.8439 10.4998 7.24982 10.4998Z" fill="#06B6D4"/>
</svg>
