<svg width="31" height="34" viewBox="0 0 31 34" fill="none" xmlns="http://www.w3.org/2000/svg">
<path d="M0 0H31V34H0V0Z" fill="#017ACB"/>
<path d="M14.8849 12.5906H16.3719V15.4062H12.3516V27.9331L12.245 27.965C12.0997 28.0075 10.1864 28.0075 9.7747 27.9597L9.44532 27.9278V15.4062H5.425V12.5906L6.69891 12.5747C7.39641 12.564 9.1886 12.564 10.6805 12.5747C12.1724 12.5853 14.0614 12.5906 14.8849 12.5906ZM26.2338 26.605C25.6428 27.2903 25.0083 27.6728 23.9524 27.9862C23.4922 28.1244 23.4147 28.1297 22.3782 28.1244C21.3416 28.119 21.2592 28.119 20.7555 27.9756C19.4525 27.609 18.4014 26.8919 17.6846 25.8772C17.4811 25.5903 17.1469 24.9953 17.1469 24.9209C17.1469 24.8997 17.1953 24.8519 17.2583 24.82C17.3213 24.7881 17.4521 24.6978 17.5586 24.6287C17.6652 24.5597 17.8589 24.4322 17.9897 24.3578C18.1205 24.2834 18.4983 24.039 18.8277 23.8212C19.1571 23.6034 19.4574 23.4281 19.4913 23.4281C19.5252 23.4281 19.5882 23.5025 19.6366 23.5928C19.9272 24.1294 20.6053 24.8147 21.0849 25.0484C21.3803 25.1865 22.0342 25.3406 22.3491 25.3406C22.6397 25.3406 23.1725 25.2025 23.4583 25.059C23.7635 24.905 23.9185 24.7509 24.1025 24.4428C24.2285 24.225 24.243 24.1665 24.2382 23.7522C24.2382 23.3697 24.2188 23.2634 24.1219 23.0881C23.8507 22.5994 23.4825 22.3444 21.9907 21.6219C20.4503 20.8728 19.7577 20.4265 19.1958 19.8262C18.7792 19.38 18.6969 19.2578 18.4353 18.7C18.0963 17.9828 18.0527 17.749 18.0478 16.6812C18.043 15.9322 18.0575 15.6878 18.1302 15.4328C18.2319 15.0503 18.5613 14.3119 18.7114 14.1259C19.0214 13.7275 19.1328 13.6053 19.3508 13.4087C20.0096 12.8137 21.0364 12.4206 22.0197 12.3834C22.1311 12.3834 22.4993 12.4047 22.8432 12.4312C23.8313 12.5215 24.5046 12.7872 25.1536 13.3556C25.6428 13.7806 26.3839 14.7794 26.3113 14.9122C26.2628 14.9919 24.3302 16.405 24.2043 16.4475C24.1268 16.474 24.0735 16.4422 23.9669 16.304C23.3082 15.4381 23.0418 15.2522 22.4024 15.2097C21.9471 15.1778 21.7049 15.2362 21.3997 15.4594C21.08 15.6931 20.925 16.049 20.925 16.5431C20.9299 17.2656 21.1817 17.6056 22.1117 18.1103C22.7124 18.4344 23.2258 18.7 23.2646 18.7C23.3227 18.7 24.5675 19.38 24.8921 19.5925C26.4033 20.5647 27.0185 21.5634 27.1783 23.2847C27.2946 24.5809 26.9604 25.7656 26.2338 26.605Z" fill="white"/>
</svg>
